<?xml version="1.0" standalone="no"?>
<!DOCTYPE svg PUBLIC "-//W3C//DTD SVG 20010904//EN"
 "http://www.w3.org/TR/2001/REC-SVG-20010904/DTD/svg10.dtd">
<svg version="1.0" xmlns="http://www.w3.org/2000/svg"
 width="1435.000000pt" height="1468.000000pt" viewBox="0 0 1435.000000 1468.000000"
 preserveAspectRatio="xMidYMid meet">

<g transform="translate(0.000000,1468.000000) scale(0.100000,-0.100000)"
fill="#ffffff" stroke="none">
<path d="M2740 14545 c-7 -8 -17 -36 -21 -62 -5 -26 -15 -53 -22 -59 -6 -6
-577 -447 -1267 -978 -690 -532 -1267 -981 -1283 -997 l-27 -29 0 -551 0 -551
29 -29 29 -29 466 0 c270 0 475 4 490 10 38 14 47 43 49 158 l2 107 633 3 632
2 0 -2270 0 -2270 -251 0 -251 0 -29 -29 -29 -29 0 -597 0 -597 29 -29 c31
-31 51 -35 82 -19 48 26 49 33 49 590 l0 520 49 0 48 0 7 -532 c5 -353 4 -542
-3 -560 -5 -14 -7 -37 -3 -50 4 -13 59 -122 122 -242 126 -238 140 -255 188
-219 52 39 45 65 -83 305 -63 120 -115 220 -115 223 0 3 36 5 79 5 l79 0 17
42 c10 26 20 92 25 174 6 108 13 143 32 186 54 116 210 279 458 477 l125 100
3 -54 3 -55 -233 -250 c-128 -138 -237 -258 -241 -268 -5 -10 -4 -30 2 -45 8
-21 17 -27 38 -27 23 1 61 36 228 217 l200 216 5 -61 c8 -92 60 -132 106 -81
16 18 20 42 24 156 l5 135 95 104 95 104 162 0 162 0 20 26 c32 41 28 98 -8
135 l-29 29 -251 0 -251 0 0 1835 0 1836 115 342 c64 188 130 384 148 434 l32
93 2181 0 2181 0 6 -252 c5 -193 3 -254 -6 -257 -26 -9 -83 -80 -95 -118 -25
-83 -5 -193 41 -232 15 -12 17 -45 17 -301 0 -279 1 -288 20 -293 11 -3 20
-13 20 -24 1 -10 7 -63 14 -118 13 -94 13 -102 -5 -141 -19 -41 -52 -64 -89
-64 -17 0 -20 7 -20 48 0 56 -28 92 -72 92 -51 0 -85 -79 -57 -131 6 -11 31
-34 57 -50 95 -60 193 -31 253 76 16 29 36 55 43 58 8 3 15 34 20 87 11 140
17 170 34 170 13 0 14 38 10 295 -3 177 -1 298 5 302 22 13 47 91 47 146 0 92
-43 169 -111 197 l-29 12 0 98 c0 53 -3 164 -6 246 l-7 149 56 16 c48 15 107
60 461 348 223 182 412 341 421 354 20 29 19 90 -2 116 -13 15 -115 56 -328
131 -170 60 -816 286 -1435 503 -619 218 -1467 515 -1885 662 -1244 437 -1855
651 -2130 747 -143 50 -265 98 -272 107 -27 36 -35 41 -62 41 -16 0 -34 -7
-41 -15z m1197 -616 c565 -198 1534 -538 2153 -756 619 -217 1303 -457 1520
-533 217 -76 408 -143 423 -149 l28 -11 -26 -22 -26 -23 -2400 3 -2399 2 0
268 0 267 -64 267 c-35 147 -61 278 -59 292 3 15 -2 37 -12 52 -9 14 -52 175
-96 357 -80 337 -82 347 -75 347 3 0 467 -162 1033 -361z m-1382 -373 l-105
-598 0 -298 0 -298 -37 -6 c-125 -19 -1216 -135 -1224 -130 -5 3 -9 47 -8 98
1 107 -9 132 -61 147 -22 6 -153 9 -343 7 -169 -2 -307 -1 -306 2 1 10 2184
1688 2187 1680 1 -4 -45 -276 -103 -604z m320 275 l77 -323 -63 -93 c-35 -51
-66 -92 -69 -90 -3 2 -36 48 -73 103 l-68 100 46 263 c53 306 66 372 70 367 2
-2 38 -149 80 -327z m-165 -526 l51 -75 -87 -126 c-47 -69 -87 -124 -89 -122
-2 2 7 59 20 128 12 69 28 158 35 198 6 39 14 72 16 72 2 0 26 -34 54 -75z
m325 -144 c25 -107 43 -196 41 -198 -4 -5 -173 237 -182 260 -3 8 16 45 42 82
27 38 49 64 51 59 1 -5 23 -96 48 -203z m-115 -159 l64 -92 -80 -116 -79 -116
-22 29 c-12 15 -49 67 -82 115 l-60 86 81 116 80 117 17 -23 c10 -13 46 -65
81 -116z m158 -568 c-2 -1 -19 -5 -40 -9 -36 -7 -36 -7 -92 72 -31 43 -54 85
-52 93 1 9 43 74 92 144 l89 128 3 -212 c1 -117 1 -214 0 -216z m-398 273 l82
-119 -70 -101 c-46 -67 -77 -103 -91 -105 -21 -3 -21 -2 -21 229 0 132 4 229
9 224 4 -6 45 -63 91 -128z m174 -254 c14 -20 23 -39 20 -42 -6 -7 -114 -18
-114 -13 0 10 55 92 62 92 4 0 19 -17 32 -37z m5424 -48 c75 -32 121 -101 129
-194 8 -87 -10 -138 -69 -193 -87 -83 -170 -86 -247 -9 -113 113 -83 330 53
392 50 23 85 24 134 4z m296 -103 l78 -29 -68 -56 c-63 -53 -94 -71 -79 -47 6
10 -8 113 -20 143 -9 23 -2 22 89 -11z m-7544 -56 l0 -44 -42 -6 c-24 -3 -113
-13 -198 -22 -127 -14 -159 -20 -177 -37 -45 -40 -18 -127 40 -127 12 0 99 9
192 20 94 11 173 20 178 20 4 0 7 -81 7 -180 l0 -180 -184 0 -185 0 -21 -27
c-16 -21 -20 -35 -15 -60 l6 -33 -100 0 c-97 0 -101 1 -134 30 -81 71 -117
226 -117 506 l0 184 375 0 375 0 0 -44z m2580 37 c0 -6 -85 -134 -121 -180
-17 -23 -17 -23 -80 69 -35 51 -68 98 -72 105 -6 10 19 13 133 13 77 0 140 -3
140 -7z m480 1 c0 -3 -31 -51 -69 -105 l-69 -100 -71 101 c-39 55 -71 103 -71
105 0 3 63 5 140 5 77 0 140 -3 140 -6z m478 -2 c-10 -23 -131 -192 -138 -192
-8 0 -140 184 -140 195 0 3 63 5 141 5 77 0 139 -4 137 -8z m476 -4 c-4 -7
-36 -55 -72 -106 l-64 -93 -69 100 c-38 54 -69 102 -69 105 0 3 63 6 141 6
109 0 139 -3 133 -12z m415 -93 c-40 -58 -74 -104 -76 -102 -12 13 -133 193
-133 200 0 4 63 7 141 7 l140 0 -72 -105z m541 98 c0 -7 -121 -187 -133 -200
-2 -2 -36 44 -76 102 l-72 105 140 0 c78 0 141 -3 141 -7z m480 1 c0 -3 -31
-51 -69 -105 l-69 -100 -64 93 c-36 51 -68 99 -72 106 -6 9 24 12 133 12 78 0
141 -3 141 -6z m480 1 c0 -11 -132 -195 -140 -195 -7 0 -128 169 -138 192 -2
4 60 8 137 8 78 0 141 -2 141 -5z m474 -7 c-4 -7 -36 -55 -72 -106 l-64 -93
-69 100 c-38 54 -69 102 -69 105 0 3 63 6 141 6 109 0 139 -3 133 -12z m479
-1 c-4 -7 -37 -54 -72 -105 -63 -92 -63 -92 -80 -69 -36 46 -121 174 -121 180
0 4 63 7 140 7 114 0 139 -3 133 -13z m-4603 -434 l-100 -147 0 294 0 294 100
-147 101 -147 -101 -147z m-430 330 c-34 -49 -64 -86 -68 -84 -12 8 -104 142
-100 146 5 5 144 22 191 24 l38 1 -61 -87z m1403 -60 l85 -122 -84 -123 c-47
-68 -88 -124 -92 -125 -9 -3 -172 232 -172 247 0 15 163 250 172 247 4 -1 45
-57 91 -124z m475 7 c45 -66 82 -124 82 -130 0 -15 -164 -249 -172 -247 -4 1
-46 57 -92 125 l-86 123 87 124 c48 69 90 125 93 125 3 0 42 -54 88 -120z
m481 -5 l85 -125 -80 -116 c-43 -63 -84 -120 -90 -125 -8 -6 -38 30 -98 116
l-87 125 86 125 c48 69 89 125 93 125 4 -1 45 -57 91 -125z m472 8 c46 -65 83
-125 83 -133 0 -14 -160 -250 -169 -250 -9 0 -169 236 -169 250 0 14 160 250
169 250 2 0 41 -53 86 -117z m483 -8 l87 -125 -87 -125 c-48 -69 -90 -125 -93
-125 -3 1 -44 57 -90 126 l-84 124 84 125 c46 68 87 124 90 125 4 0 45 -56 93
-125z m480 -2 l85 -123 -85 -122 c-47 -68 -88 -124 -92 -125 -8 -3 -172 232
-172 247 0 15 164 250 172 247 4 -1 45 -57 92 -124z m474 7 c45 -65 82 -124
82 -130 0 -14 -163 -250 -172 -247 -4 1 -45 57 -92 125 l-85 122 87 125 c47
69 88 125 92 125 3 0 42 -54 88 -120z m481 -5 l85 -125 -85 -125 c-46 -68 -87
-124 -90 -125 -3 0 -45 56 -93 125 l-87 125 87 125 c48 69 90 125 93 125 3 -1
44 -57 90 -125z m-4549 -152 l0 -267 -100 145 c-55 79 -98 150 -95 157 3 7 34
56 71 108 53 76 96 119 122 124 1 0 2 -120 2 -267z m-474 240 c7 -10 43 -62
80 -115 l67 -97 -67 -98 c-118 -173 -106 -184 -106 90 0 130 3 237 6 237 4 0
13 -8 20 -17z m1208 -103 l76 -110 -87 -125 c-48 -69 -89 -125 -92 -125 -6 0
-82 113 -89 132 -4 9 107 338 114 338 1 0 37 -49 78 -110z m-1464 94 c0 -8
-94 -144 -100 -144 -13 1 -88 125 -77 128 7 1 46 6 87 11 41 5 78 9 83 10 4 0
7 -2 7 -5z m-231 -136 l70 -101 -81 -119 c-45 -65 -85 -118 -88 -118 -7 0
-150 204 -150 215 0 16 153 225 165 225 8 0 45 -46 84 -102z m-274 23 c-20
-28 -41 -49 -46 -45 -5 3 -22 25 -39 49 l-30 43 73 9 c39 4 73 5 75 1 2 -3
-13 -29 -33 -57z m610 -126 c0 -107 -2 -195 -5 -195 -3 1 -35 45 -71 98 l-66
98 66 97 c36 53 68 97 71 97 3 0 5 -88 5 -195z m-769 60 l56 -83 -83 -121 -84
-121 -195 2 -195 3 -3 183 c-2 140 0 184 10 187 34 13 414 50 425 42 7 -5 38
-46 69 -92z m6269 22 c19 -55 101 -149 145 -167 16 -7 30 -15 30 -19 0 -14
-122 -103 -129 -95 -5 5 -43 60 -86 122 l-77 113 44 63 c33 49 45 61 50 48 3
-9 14 -38 23 -65z m-4392 -27 c-6 -24 -23 -37 -23 -18 0 12 18 38 26 38 1 0 0
-9 -3 -20z m-674 -215 l72 -105 -146 0 -146 0 72 105 c40 58 74 105 74 105 1
0 34 -47 74 -105z m595 -20 c-15 -42 -32 -79 -39 -81 -7 -3 -35 -4 -64 -2
l-51 3 71 103 71 103 19 -24 c18 -24 18 -26 -7 -102z m606 -79 c0 -3 -63 -6
-140 -6 -77 0 -140 2 -140 5 0 2 32 50 71 105 l71 101 69 -100 c38 -54 69
-102 69 -105z m414 99 c36 -52 66 -97 66 -100 0 -3 -63 -5 -141 -5 -77 0 -139
4 -137 9 9 24 134 198 140 195 4 -3 36 -47 72 -99z m476 3 l71 -103 -137 -3
c-75 -1 -139 0 -141 2 -4 4 127 205 134 206 1 0 34 -46 73 -102z m484 -8 l66
-95 -137 -3 c-74 -1 -138 0 -141 3 -3 2 26 50 63 105 38 55 72 97 76 93 4 -5
37 -51 73 -103z m471 10 c37 -55 66 -103 63 -105 -3 -3 -66 -4 -141 -3 l-136
3 71 103 c39 56 71 102 72 102 1 0 33 -45 71 -100z m504 -38 c24 -35 41 -66
38 -68 -2 -3 -66 -3 -141 -2 l-137 3 71 103 72 103 27 -38 c15 -21 46 -66 70
-101z m930 38 c39 -56 71 -103 71 -105 0 -3 -63 -5 -140 -5 -77 0 -140 3 -140
6 0 5 133 203 137 204 1 0 33 -45 72 -100z m470 11 c48 -70 49 -74 34 -97 -15
-23 -20 -24 -124 -24 -60 0 -109 3 -109 7 0 16 134 203 141 196 4 -5 30 -41
58 -82z m-945 -16 c36 -52 66 -97 66 -100 0 -3 -63 -5 -140 -5 -77 0 -140 2
-140 5 0 11 132 195 140 195 5 0 38 -43 74 -95z m-4579 -20 l56 -80 -60 -3
c-34 -2 -88 -2 -120 0 l-60 3 57 83 c31 45 60 81 64 80 4 -2 33 -39 63 -83z
m-456 -10 l52 -75 -106 0 c-82 0 -105 3 -99 13 13 22 96 137 99 137 1 0 26
-34 54 -75z m1751 -66 c0 -5 -11 -9 -25 -9 -27 0 -28 2 -18 39 l6 24 19 -22
c10 -13 18 -27 18 -32z m-530 -218 c0 -48 -3 -61 -17 -66 -10 -3 -63 -66 -118
-140 -55 -75 -103 -134 -108 -132 -4 1 -54 63 -110 137 -79 105 -107 135 -125
134 -20 -1 -22 4 -22 63 l0 63 250 0 250 0 0 -59z m320 55 c0 -7 -182 -541
-186 -545 -2 -2 -4 120 -4 272 l0 277 95 0 c52 0 95 -2 95 -4z m-716 -367 c47
-64 86 -119 86 -124 0 -7 -156 -222 -181 -249 -5 -6 -9 103 -9 249 0 146 4
255 9 250 4 -6 47 -62 95 -126z m394 -238 l-3 -121 -82 113 c-46 61 -83 117
-83 122 0 6 37 61 83 122 l82 113 3 -115 c1 -62 1 -168 0 -234z m-134 -112
l95 -127 -95 -128 c-52 -71 -98 -130 -103 -132 -5 -2 -52 56 -106 128 l-97
131 98 130 c53 71 100 128 105 127 4 -2 51 -60 103 -129z m5055 78 c19 -23 24
-75 11 -107 -38 -92 -155 -57 -155 46 0 54 17 74 43 51 25 -23 49 -21 64 3 15
24 22 25 37 7z m-59 -272 c19 0 45 4 58 8 20 8 22 5 22 -27 l0 -36 -80 0 -80
0 0 36 c0 32 2 35 23 27 12 -4 38 -8 57 -8z m-5261 -159 c50 -68 91 -127 91
-131 0 -6 -160 -227 -181 -249 -5 -6 -9 99 -9 247 0 141 2 257 4 257 3 0 45
-56 95 -124z m401 -133 l0 -237 -89 119 -89 120 22 30 c107 147 151 205 153
205 2 0 3 -107 3 -237z m-127 -235 l85 -116 -95 -129 c-52 -70 -99 -129 -103
-131 -4 -1 -51 56 -104 128 l-97 131 98 134 c91 124 99 133 114 117 9 -9 55
-69 102 -134z m-279 -333 c48 -64 89 -122 92 -129 4 -11 -129 -205 -178 -260
-4 -6 -8 106 -8 247 0 141 2 257 4 257 2 0 43 -52 90 -115z m404 -253 l-3
-119 -87 118 -86 117 86 117 87 116 3 -115 c1 -63 1 -169 0 -234z m-139 -105
c50 -67 91 -126 93 -131 2 -11 -185 -266 -194 -263 -4 1 -50 60 -103 130 l-96
128 52 72 c112 154 144 195 151 191 4 -3 47 -60 97 -127z m-264 -353 c48 -64
89 -122 91 -129 3 -8 -38 -71 -90 -141 l-96 -127 0 256 c0 142 2 257 4 257 3
0 44 -52 91 -116z m403 -251 l-3 -116 -87 115 -86 116 86 117 87 118 3 -117
c1 -64 1 -169 0 -233z m-139 -103 c51 -70 93 -132 92 -137 -2 -15 -186 -262
-193 -260 -18 5 -197 261 -190 272 19 32 188 255 192 254 3 0 47 -58 99 -129z
m-258 -362 c49 -67 88 -127 85 -134 -7 -18 -175 -244 -181 -244 -3 0 -5 113
-5 250 0 138 2 250 5 250 3 0 46 -55 96 -122z m397 -245 l-3 -118 -82 112
c-46 62 -83 117 -83 123 0 6 37 61 83 123 l82 112 3 -118 c1 -64 1 -170 0
-234z m-140 -101 c51 -70 93 -131 93 -135 2 -15 -185 -266 -196 -263 -19 5
-194 259 -187 271 20 34 186 255 191 255 3 0 48 -58 99 -128z m-259 -365 c55
-77 89 -133 84 -140 -18 -30 -174 -237 -178 -237 -3 0 -5 116 -5 257 0 141 2
254 4 252 2 -2 45 -62 95 -132z m399 -258 l-3 -121 -87 121 c-49 66 -88 123
-88 126 0 3 39 58 88 122 l87 116 3 -121 c1 -67 1 -177 0 -243z m-119 -133
c97 -136 121 -175 121 -202 l0 -34 -250 0 -250 0 0 33 c0 27 24 66 127 205 70
95 127 171 128 169 1 -1 57 -78 124 -171z m301 -429 c0 -2 -11 -14 -25 -27
l-25 -23 0 26 c0 22 5 27 25 27 14 0 25 -1 25 -3z"/>
<path d="M5612 11263 c-7 -3 -19 -18 -28 -34 -14 -27 -12 -54 16 -315 18 -157
30 -290 27 -297 -2 -7 -110 -61 -240 -120 -129 -60 -242 -114 -251 -120 -40
-30 -35 -124 7 -152 37 -24 428 -165 457 -165 42 0 70 29 77 78 8 58 27 48 31
-17 3 -46 0 -55 -27 -81 -16 -17 -38 -30 -49 -30 -11 0 -115 36 -232 80 -117
44 -215 78 -218 75 -3 -2 10 -150 29 -327 l35 -323 188 2 c104 1 190 4 191 5
2 2 -5 77 -16 168 -10 91 -19 177 -19 191 l0 26 98 -1 c78 -1 104 3 136 19 69
35 79 58 80 188 1 160 5 156 -168 213 -78 26 -145 50 -149 54 -4 4 24 21 63
38 l71 31 232 -88 c127 -49 241 -92 251 -97 16 -6 10 -11 -34 -31 -29 -13 -63
-23 -77 -23 -13 0 -35 -11 -48 -25 -33 -32 -32 -57 6 -395 16 -150 29 -274 27
-275 -2 -2 -88 -10 -193 -19 -104 -10 -228 -21 -274 -27 -46 -5 -158 -16 -249
-24 -92 -9 -174 -21 -184 -27 -10 -7 -243 -314 -518 -683 -374 -501 -500 -676
-500 -697 0 -15 32 -158 71 -318 l71 -290 -85 -98 c-46 -53 -434 -497 -861
-987 -428 -489 -782 -901 -788 -915 -10 -27 44 -378 68 -437 23 -59 105 -58
130 2 12 31 11 50 -15 201 l-29 168 88 100 c48 56 557 639 1131 1296 574 658
1063 1218 1086 1245 l41 49 6 -35 c3 -19 29 -247 57 -508 42 -394 48 -476 37
-486 -7 -7 -476 -363 -1043 -790 -566 -427 -1038 -786 -1047 -797 -11 -12 -18
-37 -18 -62 0 -54 33 -89 78 -84 23 2 304 209 1063 783 568 429 1052 792 1075
807 82 52 81 20 18 606 l-56 519 117 167 117 166 -42 388 c-23 213 -45 390
-48 393 -4 4 -36 2 -72 -4 l-65 -10 -330 -430 c-182 -237 -372 -485 -422 -552
-90 -117 -92 -122 -83 -155 5 -19 25 -99 44 -178 l34 -143 -26 -30 c-19 -23
-27 -27 -32 -17 -4 7 -29 101 -56 209 l-48 197 465 620 464 619 84 7 c46 4 85
5 87 3 2 -2 22 -175 45 -383 23 -224 46 -392 54 -412 28 -62 102 -68 134 -10
14 24 12 63 -28 423 -23 218 -40 399 -37 402 6 6 1190 112 1255 113 32 0 175
-47 535 -177 270 -97 492 -177 494 -178 4 -3 74 -657 70 -660 -2 -3 -51 4
-108 15 -257 46 -373 55 -715 55 -389 0 -584 -18 -925 -85 -212 -42 -618 -158
-736 -209 -77 -34 -78 14 30 -863 53 -430 93 -784 89 -788 -4 -4 -102 -62
-218 -130 -815 -478 -1697 -1057 -2385 -1568 -262 -195 -476 -366 -491 -393
-26 -49 17 -139 67 -139 21 0 64 29 160 107 23 18 43 33 46 33 8 0 138 -158
138 -168 0 -6 -12 -18 -27 -27 -81 -52 -108 -107 -79 -163 29 -57 68 -56 153
3 35 25 68 45 72 45 8 0 91 -94 91 -103 0 -3 -23 -19 -50 -37 -28 -18 -59 -44
-70 -58 -36 -45 -20 -121 30 -142 33 -14 43 -9 140 57 l64 45 22 -25 21 -25
159 97 c309 189 1333 801 1629 973 2414 1408 4224 2298 5265 2588 237 66 234
65 226 43 -15 -39 -167 -652 -224 -903 -141 -623 -284 -1422 -281 -1580 0 -19
2 -152 3 -295 2 -180 6 -269 15 -290 34 -83 119 -117 236 -95 l63 12 16 111
c119 804 275 1366 568 2052 307 720 777 1519 1205 2052 91 113 112 159 113
239 0 108 -54 214 -109 214 -52 0 -410 -77 -786 -170 -914 -225 -1844 -529
-2779 -906 -142 -57 -260 -103 -262 -101 -5 5 -23 170 -30 277 -9 143 -16 154
-109 181 -41 12 -75 27 -75 33 -1 6 -20 187 -44 402 -30 278 -47 399 -58 415
-12 19 -124 63 -564 221 l-549 198 -325 -29 c-179 -16 -327 -27 -329 -25 -7 7
-59 509 -53 515 4 3 79 34 166 69 88 35 168 72 178 82 36 36 35 103 -2 135
-10 9 -175 76 -367 149 -191 73 -355 137 -363 142 -11 7 -22 81 -46 306 -29
272 -34 300 -55 322 -21 23 -56 30 -87 17z m1948 -3018 c161 -18 326 -46 472
-81 l106 -25 7 -107 c3 -59 7 -140 8 -181 l2 -74 -220 -97 c-650 -286 -1318
-616 -1958 -967 -125 -69 -230 -123 -232 -121 -4 4 -175 1364 -175 1393 0 8
49 29 128 54 357 115 760 193 1142 220 167 13 552 5 720 -14z"/>
<path d="M6875 8173 c-257 -21 -524 -62 -776 -118 -149 -33 -426 -108 -433
-116 -5 -6 130 -1228 136 -1235 3 -3 93 42 199 99 899 486 1771 912 2039 998
64 20 62 12 40 186 l-12 102 -87 20 c-102 24 -255 46 -406 61 -99 9 -601 12
-700 3z"/>
<path d="M4922 10140 l-122 -159 10 -253 c5 -139 10 -289 10 -333 l0 -81 -335
-481 -335 -482 0 -55 c0 -104 24 -90 172 101 132 170 261 344 566 762 l216
296 -3 65 c-6 148 -49 771 -53 775 -2 2 -59 -67 -126 -155z"/>
<path d="M6270 9209 c-524 -49 -525 -49 -547 -74 -47 -54 -15 -156 49 -155 13
1 262 22 553 49 l530 49 435 -149 c239 -82 447 -149 462 -149 57 0 91 100 51
149 -25 31 -906 331 -965 330 -24 -1 -279 -23 -568 -50z"/>
<path d="M6680 8989 c-36 -4 -257 -31 -492 -60 -235 -29 -433 -56 -439 -59
-12 -8 28 -427 42 -444 4 -4 117 12 251 38 350 66 539 96 652 103 l99 6 20 45
c30 68 17 94 -53 108 -134 26 -134 57 0 169 96 80 104 106 33 104 -27 -1 -77
-5 -113 -10z"/>
<path d="M4215 6949 c-346 -386 -649 -727 -674 -758 -89 -114 -143 -273 -105
-311 9 -9 191 128 711 535 l700 546 -10 57 c-5 31 -6 104 -4 162 6 111 20 163
77 284 40 84 35 127 -19 163 -19 13 -37 23 -40 23 -4 0 -290 -316 -636 -701z"/>
<path d="M9200 6883 c-627 -192 -1757 -726 -3150 -1488 -1079 -590 -2208
-1258 -2412 -1427 -52 -43 -108 -124 -108 -156 0 -12 12 -29 27 -39 22 -15 55
-19 192 -21 242 -5 490 18 1626 153 l480 57 75 77 c41 42 174 196 296 341 324
389 522 569 762 693 150 78 259 109 392 110 152 2 265 -36 486 -164 289 -167
404 -206 569 -195 231 14 405 76 501 178 48 51 78 97 175 272 86 156 193 243
311 254 32 2 58 8 58 13 0 4 -17 26 -38 49 -31 31 -46 40 -73 40 -80 0 -143
81 -181 235 -32 128 -32 406 -1 541 28 118 68 203 133 284 56 69 89 131 90
167 0 26 -44 63 -74 62 -11 0 -73 -16 -136 -36z"/>
<path d="M5279 6797 c-24 -19 -118 -85 -209 -147 -844 -581 -2086 -1564 -2496
-1976 -110 -111 -150 -164 -122 -164 6 0 112 76 237 168 1039 772 1910 1346
2563 1691 76 40 141 78 145 84 12 19 6 127 -12 202 -24 107 -46 175 -54 175
-4 0 -28 -15 -52 -33z"/>
<path d="M9458 5283 c-11 -12 -19 -56 -27 -138 -24 -271 -110 -461 -278 -614
-125 -115 -289 -170 -470 -157 -168 12 -320 59 -628 196 -474 211 -694 251
-918 166 -157 -59 -238 -135 -396 -371 -62 -91 -141 -205 -176 -253 -35 -48
-62 -88 -61 -90 2 -1 47 0 100 4 l97 7 85 123 c216 314 315 406 471 439 189
40 366 -1 751 -173 347 -156 508 -207 697 -218 320 -20 599 154 760 476 71
142 107 280 120 456 8 94 1 125 -34 151 -24 18 -76 16 -93 -4z"/>
<path d="M10732 5093 c-7 -3 -19 -18 -27 -33 -31 -60 -12 -121 47 -151 242
-124 274 -512 58 -712 -167 -155 -454 -199 -915 -141 -71 9 -197 17 -280 18
-169 1 -249 -16 -381 -79 -103 -50 -301 -203 -283 -219 2 -2 44 -15 93 -29
l89 -25 76 44 c187 108 404 136 801 105 165 -14 380 -14 477 0 105 15 244 60
322 106 127 75 235 230 277 398 23 94 23 267 0 355 -40 147 -136 275 -254 338
-59 31 -75 35 -100 25z"/>
<path d="M7425 4116 c-65 -15 -185 -64 -185 -76 0 -4 71 -10 158 -13 321 -14
733 -66 1108 -143 26 -5 33 -3 38 14 9 28 -17 87 -48 107 -25 17 -29 16 -85
-5 -105 -39 -214 -28 -438 44 -239 78 -421 101 -548 72z"/>
<path d="M6620 3863 c-1131 -65 -2265 -373 -3375 -917 -406 -199 -751 -395
-1108 -629 l-168 -110 7 -56 c3 -31 8 -57 9 -59 2 -2 92 34 201 80 189 80 198
85 231 130 57 79 89 92 223 96 105 3 125 7 225 44 908 333 1858 569 2745 682
781 100 1594 118 2345 50 977 -87 1944 -318 2815 -671 167 -68 191 -75 248
-74 43 1 76 -4 108 -19 59 -26 167 -102 186 -132 9 -13 39 -34 68 -48 51 -24
53 -24 64 -6 6 10 25 40 42 67 l32 48 -112 79 c-1228 872 -2541 1351 -3951
1442 -143 9 -694 11 -835 3z"/>
<path d="M10266 3680 c-105 -92 -214 -157 -341 -205 l-60 -23 45 -20 c25 -11
71 -31 103 -46 l59 -26 41 22 c74 37 190 120 249 178 65 63 74 97 37 144 -32
41 -66 35 -133 -24z"/>
<path d="M3945 3546 c-223 -19 -389 -37 -402 -44 -32 -18 -46 -76 -28 -118 19
-46 44 -53 155 -43 80 7 114 16 220 59 69 28 199 78 290 111 163 60 187 70
159 68 -8 -1 -185 -16 -394 -33z"/>
<path d="M6735 2984 c-777 -47 -1356 -148 -2060 -361 -218 -66 -704 -239 -723
-257 -4 -5 66 -126 73 -126 2 0 116 28 252 61 156 39 259 70 278 83 24 17 46
21 110 22 44 1 148 15 231 32 424 86 916 151 1474 194 260 20 1179 17 1445 -5
539 -45 968 -109 1410 -209 139 -31 193 -39 237 -35 77 7 122 -5 170 -44 22
-17 67 -40 100 -50 l60 -19 21 27 c12 16 34 40 48 55 l27 28 -46 21 c-26 12
-128 54 -227 94 -642 260 -1306 415 -2035 475 -127 11 -736 21 -845 14z"/>
<path d="M3530 2384 c-32 -27 -57 -68 -70 -116 -9 -28 22 -264 61 -473 26
-139 146 -618 199 -793 22 -74 61 -190 86 -259 46 -126 195 -465 216 -491 21
-24 229 3 301 40 30 15 44 32 63 74 49 112 188 583 249 849 24 104 102 347
146 453 21 50 42 111 45 135 3 23 26 111 50 195 24 84 44 159 44 166 0 8 -20
39 -45 69 -48 60 -47 59 -187 72 -66 6 -67 6 -106 -30 -36 -32 -41 -43 -52
-108 -40 -249 -82 -400 -130 -465 -40 -56 -76 -129 -104 -214 -25 -76 -142
-324 -157 -333 -15 -10 -26 27 -48 155 -46 267 -74 399 -102 495 -21 70 -33
139 -40 230 -9 119 -13 136 -46 201 -20 39 -49 87 -64 105 -27 34 -28 34 -134
40 -59 3 -111 11 -117 17 -17 17 -22 15 -58 -14z"/>
<path d="M393 2328 c-29 -14 -59 -77 -72 -153 -22 -124 -68 -1253 -71 -1726
l0 -56 49 -31 c64 -42 162 -57 264 -41 87 13 102 21 122 59 22 43 32 134 50
480 12 229 21 319 30 329 16 16 23 16 225 6 85 -5 202 -9 260 -10 145 -2 134
2 125 -47 -10 -58 -21 -210 -35 -470 l-11 -216 46 -60 c26 -33 54 -62 63 -64
10 -3 75 -2 145 0 l129 4 34 54 c79 124 72 61 103 944 16 437 26 812 23 833
-6 49 -47 92 -103 108 -48 14 -238 19 -280 7 -14 -4 -39 -26 -55 -49 l-28 -41
-9 -296 c-5 -165 -13 -301 -18 -307 -6 -6 -110 -10 -275 -9 -225 1 -271 4
-310 19 l-46 17 6 57 c3 31 9 169 12 306 l6 251 -34 44 -34 45 -84 7 c-47 3
-112 8 -145 11 -33 3 -70 0 -82 -5z"/>
<path d="M10580 2319 c-234 -4 -472 -10 -529 -14 -100 -7 -105 -8 -133 -39
-61 -65 -68 -90 -61 -230 6 -122 7 -127 32 -145 61 -42 116 -54 217 -47 52 3
117 4 143 0 l47 -6 -4 -337 c-2 -185 1 -526 6 -759 l8 -423 49 -49 49 -50 108
0 108 0 45 41 c25 23 55 57 67 77 l21 35 -12 724 c-7 399 -10 727 -7 730 7 8
200 22 298 23 l88 0 31 43 c17 23 44 69 58 102 24 54 27 69 23 147 l-3 88 -76
50 c-59 39 -82 50 -111 48 -21 -1 -228 -5 -462 -9z"/>
<path d="M13007 2320 c-60 -10 -142 -59 -202 -120 l-46 -47 11 -46 c6 -30 6
-55 0 -71 -8 -21 -32 -1055 -34 -1491 -1 -125 0 -132 29 -190 42 -84 67 -98
168 -102 45 -1 177 -9 292 -18 261 -21 260 -21 332 0 236 68 451 291 519 537
16 58 58 740 52 843 -10 160 -247 493 -415 583 -33 17 -67 32 -74 32 -8 0 -34
11 -59 24 -44 23 -148 41 -375 66 -102 11 -130 11 -198 0z m572 -545 c5 -5
-34 -869 -46 -1011 l-6 -72 -64 -7 c-35 -4 -113 -3 -173 0 l-110 8 0 221 c0
260 49 843 71 857 7 4 58 5 113 2 62 -3 111 -1 126 6 23 10 77 7 89 -4z"/>
<path d="M2523 2271 c-69 -69 -118 -220 -164 -509 -17 -108 -73 -411 -125
-672 -146 -740 -143 -721 -90 -768 57 -50 113 -66 214 -60 103 6 147 25 166
71 8 18 24 96 36 175 12 79 26 155 31 170 l9 27 184 -5 c178 -5 185 -6 210
-29 33 -31 67 -102 100 -212 28 -94 73 -166 108 -173 57 -12 197 -15 230 -5
73 19 84 68 43 189 -14 41 -74 264 -134 495 -60 231 -118 449 -129 485 -11 36
-54 185 -96 333 -86 297 -165 489 -209 501 -12 3 -96 9 -187 12 l-165 7 -32
-32z m338 -836 c46 -157 73 -269 73 -300 l1 -50 -135 -8 c-74 -4 -141 -5 -147
-2 -28 10 -8 138 52 340 13 44 33 129 46 189 12 61 25 102 29 95 4 -8 40 -126
81 -264z"/>
<path d="M11591 2262 c-70 -74 -121 -247 -171 -582 -12 -80 -62 -345 -111
-590 -91 -461 -129 -666 -129 -706 0 -34 43 -79 102 -104 45 -19 65 -22 143
-18 96 5 144 22 169 61 8 12 24 85 36 161 11 77 25 157 32 178 l11 38 182 0
181 0 38 -39 c31 -32 46 -63 82 -167 68 -201 81 -212 241 -216 100 -3 114 -1
140 18 48 36 50 61 15 171 -18 54 -79 278 -136 498 -157 606 -295 1068 -355
1197 -28 59 -60 112 -71 118 -10 6 -96 13 -190 17 l-170 6 -39 -41z m421
-1102 c10 -50 10 -63 -1 -69 -7 -4 -72 -11 -144 -14 -117 -6 -133 -5 -145 10
-17 23 -7 90 36 243 19 69 45 173 57 232 13 59 27 117 31 130 5 16 26 -44 80
-225 40 -135 79 -274 86 -307z"/>
<path d="M9445 2279 c-38 -4 -203 -10 -365 -14 -339 -8 -331 -7 -451 -103 -98
-79 -253 -242 -279 -293 -27 -51 -39 -264 -21 -351 30 -142 156 -298 316 -391
l80 -47 252 0 c138 0 254 -4 257 -9 3 -5 7 -62 8 -127 2 -122 -11 -174 -45
-187 -8 -3 -180 1 -382 7 l-369 13 -56 -45 c-30 -25 -58 -50 -62 -56 -4 -6 -8
-53 -8 -105 0 -110 16 -153 78 -214 l39 -38 364 -1 364 -1 89 27 c63 18 108
40 155 73 89 64 213 184 251 242 30 47 30 49 30 188 0 211 -39 315 -164 438
-132 130 -262 185 -497 210 -79 8 -161 18 -181 21 l-38 6 0 124 c0 116 1 124
22 138 19 14 72 16 375 16 l352 0 56 69 55 70 0 108 0 108 -46 53 c-39 44 -95
86 -106 80 -2 0 -34 -4 -73 -9z"/>
<path d="M5235 2260 c-13 -9 -34 -28 -46 -44 l-23 -29 -1 -761 c0 -419 -5
-837 -9 -931 l-8 -170 31 -30 c30 -27 40 -31 124 -37 51 -3 269 -7 485 -7 437
-1 432 -2 492 65 l36 39 -1 119 0 120 -45 26 c-45 26 -46 26 -275 28 -223 2
-388 9 -431 17 -20 4 -20 7 -8 107 9 75 9 122 1 171 -6 42 -7 71 -1 77 6 6
141 6 354 0 l345 -10 23 27 c50 60 51 62 43 169 -7 99 -8 102 -42 132 -25 24
-43 31 -69 30 -19 0 -168 3 -330 7 -271 7 -328 13 -315 35 3 4 8 52 12 106 7
94 8 133 4 179 -1 11 4 61 11 111 l12 91 290 6 c160 4 309 11 330 16 22 5 53
24 71 43 31 31 33 39 38 122 l6 88 -51 54 -51 54 -489 -2 c-419 -3 -493 -5
-513 -18z"/>
<path d="M6594 2261 c-59 -36 -58 -5 -50 -914 l7 -832 26 -47 c47 -86 50 -87
193 -76 118 10 127 12 170 44 25 18 51 43 57 56 7 14 16 156 22 373 7 193 14
403 18 467 l6 117 117 -177 c190 -287 500 -686 609 -784 35 -33 48 -38 89 -38
40 0 54 6 93 38 91 74 84 -18 62 861 -20 765 -21 777 -43 821 -12 25 -34 57
-48 73 l-26 27 -147 0 c-143 0 -148 -1 -177 -25 -17 -14 -39 -44 -50 -68 -19
-41 -19 -50 -6 -347 7 -168 13 -323 13 -344 1 -39 -1 -37 -80 84 -45 69 -114
167 -155 218 -41 51 -74 98 -74 104 0 26 -149 274 -189 314 -49 51 -43 49
-216 63 -172 15 -185 14 -221 -8z"/>
<path d="M3262 2051 c-100 -52 -108 -58 -99 -67 6 -6 196 53 209 65 8 7 -1 51
-11 51 -3 0 -48 -22 -99 -49z"/>
</g>
</svg>
